# This file uses centimeters as units for non-parametric coordinates.

mtllib LVL_3.mtl
g default
v 4.583673 -7.981087 0.990294
v 10.334746 -7.981087 0.990294
v 4.583673 0.079838 0.990294
v 10.334746 0.079838 0.990294
v 4.583673 0.079838 -0.990294
v 10.334746 0.079838 -0.990294
v 4.583673 -7.981087 -0.990294
v 10.334746 -7.981087 -0.990294
vt 0.892774 0.609876
vt 0.892726 0.893637
vt 0.494995 0.893570
vt 0.495043 0.609809
vt 0.494978 0.991293
vt 0.892709 0.991361
vt 0.990497 0.609893
vt 0.990449 0.893654
vt 0.892790 0.512153
vt 0.397272 0.893553
vt 0.397320 0.609792
vt 0.495060 0.512085
vn 0.000000 0.000000 1.000000
vn 0.000000 0.000000 1.000000
vn 0.000000 0.000000 1.000000
vn 0.000000 0.000000 1.000000
vn 0.000000 1.000000 0.000000
vn 0.000000 1.000000 0.000000
vn 0.000000 1.000000 0.000000
vn 0.000000 1.000000 0.000000
vn 0.000000 0.000000 -1.000000
vn 0.000000 0.000000 -1.000000
vn 0.000000 0.000000 -1.000000
vn 0.000000 0.000000 -1.000000
vn 0.000000 -1.000000 0.000000
vn 0.000000 -1.000000 0.000000
vn 0.000000 -1.000000 0.000000
vn 0.000000 -1.000000 0.000000
vn 1.000000 0.000000 0.000000
vn 1.000000 0.000000 0.000000
vn 1.000000 0.000000 0.000000
vn 1.000000 0.000000 0.000000
vn -1.000000 0.000000 0.000000
vn -1.000000 0.000000 0.000000
vn -1.000000 0.000000 0.000000
vn -1.000000 0.000000 0.000000
s off
g pCube5 Lvl_3
usemtl initialShadingGroup
f 1/1/1 2/2/2 4/3/3 3/4/4
f 3/4/5 4/3/6 6/10/7 5/11/8
f 5//9 6//10 8//11 7//12
f 7/7/13 8/8/14 2/2/15 1/1/16
f 2/2/17 8/6/18 6/5/19 4/3/20
f 7/9/21 1/1/22 3/4/23 5/12/24
g default
v -9.560202 -10.133959 0.990294
v -1.999467 -10.133959 0.990294
v -9.560202 -2.073034 0.990294
v -1.999467 -2.073034 0.990294
v -9.560202 -2.073034 -0.990294
v -1.999467 -2.073034 -0.990294
v -9.560202 -10.133959 -0.990294
v -1.999467 -10.133959 -0.990294
vt 0.111520 0.099351
vt 0.484571 0.099392
vt 0.484527 0.497123
vt 0.111476 0.497081
vt 0.582250 0.497133
vt 0.582294 0.099403
vt 0.111531 0.001628
vt 0.484582 0.001669
vt 0.013797 0.099340
vt 0.484516 0.594846
vt 0.111465 0.594805
vt 0.013753 0.497071
vn 0.000000 0.000000 1.000000
vn 0.000000 0.000000 1.000000
vn 0.000000 0.000000 1.000000
vn 0.000000 0.000000 1.000000
vn 0.000000 1.000000 0.000000
vn 0.000000 1.000000 0.000000
vn 0.000000 1.000000 0.000000
vn 0.000000 1.000000 0.000000
vn 0.000000 0.000000 -1.000000
vn 0.000000 0.000000 -1.000000
vn 0.000000 0.000000 -1.000000
vn 0.000000 0.000000 -1.000000
vn 0.000000 -1.000000 0.000000
vn 0.000000 -1.000000 0.000000
vn 0.000000 -1.000000 0.000000
vn 0.000000 -1.000000 0.000000
vn 1.000000 0.000000 0.000000
vn 1.000000 0.000000 0.000000
vn 1.000000 0.000000 0.000000
vn 1.000000 0.000000 0.000000
vn -1.000000 0.000000 0.000000
vn -1.000000 0.000000 0.000000
vn -1.000000 0.000000 0.000000
vn -1.000000 0.000000 0.000000
s off
g Lvl_3 pCube6
usemtl initialShadingGroup
f 9/13/25 10/14/26 12/15/27 11/16/28
f 11/16/29 12/15/30 14/22/31 13/23/32
f 13//33 14//34 16//35 15//36
f 15/19/37 16/20/38 10/14/39 9/13/40
f 10/14/41 16/18/42 14/17/43 12/15/44
f 15/21/45 9/13/46 11/16/47 13/24/48
