# This file uses centimeters as units for non-parametric coordinates.

mtllib LVL_2.mtl
g default
v -9.825945 -7.906854 0.990294
v -1.071536 -7.906854 0.990294
v -9.825945 -2.080996 0.990294
v -1.071536 -2.080996 0.990294
v -9.825945 -2.080996 -0.990294
v -1.071536 -2.080996 -0.990294
v -9.825945 -7.906854 -0.990294
v -1.071536 -7.906854 -0.990294
vt 0.105123 0.105125
vt 0.569780 0.105123
vt 0.569781 0.414342
vt 0.105125 0.414344
vt 0.674905 0.414341
vt 0.674903 0.105123
vt 0.105123 0.000002
vt 0.569780 0.000000
vt 0.000000 0.105126
vt 0.569782 0.519465
vt 0.105125 0.519467
vt 0.000001 0.414344
vn 0.000000 0.000000 1.000000
vn 0.000000 0.000000 1.000000
vn 0.000000 0.000000 1.000000
vn 0.000000 0.000000 1.000000
vn 0.000000 1.000000 0.000000
vn 0.000000 1.000000 0.000000
vn 0.000000 1.000000 0.000000
vn 0.000000 1.000000 0.000000
vn 0.000000 0.000000 -1.000000
vn 0.000000 0.000000 -1.000000
vn 0.000000 0.000000 -1.000000
vn 0.000000 0.000000 -1.000000
vn 0.000000 -1.000000 0.000000
vn 0.000000 -1.000000 0.000000
vn 0.000000 -1.000000 0.000000
vn 0.000000 -1.000000 0.000000
vn 1.000000 0.000000 0.000000
vn 1.000000 0.000000 0.000000
vn 1.000000 0.000000 0.000000
vn 1.000000 0.000000 0.000000
vn -1.000000 0.000000 0.000000
vn -1.000000 0.000000 0.000000
vn -1.000000 0.000000 0.000000
vn -1.000000 0.000000 0.000000
s off
g pCube4 Lvl_2
usemtl initialShadingGroup
f 1/1/1 2/2/2 4/3/3 3/4/4
f 3/4/5 4/3/6 6/10/7 5/11/8
f 5//9 6//10 8//11 7//12
f 7/7/13 8/8/14 2/2/15 1/1/16
f 2/2/17 8/6/18 6/5/19 4/3/20
f 7/9/21 1/1/22 3/4/23 5/12/24
g default
v 4.583673 -7.906854 0.990294
v 10.334746 -7.906854 0.990294
v 4.583673 -2.815403 0.990294
v 10.334746 -2.815403 0.990294
v 4.583673 -2.815403 -0.990294
v 10.334746 -2.815403 -0.990294
v 4.583673 -7.906854 -0.990294
v 10.334746 -7.906854 -0.990294
vt 0.261385 0.624638
vt 0.566634 0.624588
vt 0.566678 0.894827
vt 0.261429 0.894877
vt 0.671801 0.894809
vt 0.671757 0.624571
vt 0.261368 0.519515
vt 0.566616 0.519465
vt 0.156261 0.624656
vt 0.566695 0.999950
vt 0.261446 1.000000
vt 0.156306 0.894894
vn 0.000000 0.000000 1.000000
vn 0.000000 0.000000 1.000000
vn 0.000000 0.000000 1.000000
vn 0.000000 0.000000 1.000000
vn 0.000000 1.000000 0.000000
vn 0.000000 1.000000 0.000000
vn 0.000000 1.000000 0.000000
vn 0.000000 1.000000 0.000000
vn 0.000000 0.000000 -1.000000
vn 0.000000 0.000000 -1.000000
vn 0.000000 0.000000 -1.000000
vn 0.000000 0.000000 -1.000000
vn 0.000000 -1.000000 0.000000
vn 0.000000 -1.000000 0.000000
vn 0.000000 -1.000000 0.000000
vn 0.000000 -1.000000 0.000000
vn 1.000000 0.000000 0.000000
vn 1.000000 0.000000 0.000000
vn 1.000000 0.000000 0.000000
vn 1.000000 0.000000 0.000000
vn -1.000000 0.000000 0.000000
vn -1.000000 0.000000 0.000000
vn -1.000000 0.000000 0.000000
vn -1.000000 0.000000 0.000000
s off
g Lvl_2 pCube3
usemtl initialShadingGroup
f 9/13/25 10/14/26 12/15/27 11/16/28
f 11/16/29 12/15/30 14/22/31 13/23/32
f 13//33 14//34 16//35 15//36
f 15/19/37 16/20/38 10/14/39 9/13/40
f 10/14/41 16/18/42 14/17/43 12/15/44
f 15/21/45 9/13/46 11/16/47 13/24/48
